<svg xmlns="http://www.w3.org/2000/svg" width="1280" height="720" viewBox="0 0 1280 720" fill="none">
  <rect width="1280" height="720" fill="#F4EFE5"/>
  <rect x="48" y="40" width="1184" height="180" rx="28" fill="url(#paint0_linear)"/>
  <text x="84" y="92" fill="#A0432A" font-family="Georgia, serif" font-size="16" font-weight="700" letter-spacing="2">SECURITY CONTROL VALIDATION LAB</text>
  <text x="84" y="140" fill="#1F2933" font-family="Georgia, serif" font-size="42" font-weight="700">controlguard sample report</text>
  <text x="84" y="178" fill="#5D6B79" font-family="Georgia, serif" font-size="20">Host, web, and IAM evidence with strict scoring and framework rollups.</text>
  <rect x="850" y="68" width="280" height="124" rx="22" fill="#FFFDF8" stroke="#D7C6AA"/>
  <circle cx="990" cy="130" r="44" stroke="#EADBC6" stroke-width="12"/>
  <path d="M990 86 A44 44 0 1 1 956 164" stroke="#B03A2E" stroke-width="12" stroke-linecap="round"/>
  <text x="990" y="126" text-anchor="middle" fill="#1F2933" font-family="Georgia, serif" font-size="28" font-weight="700">61.5</text>
  <text x="990" y="148" text-anchor="middle" fill="#5D6B79" font-family="Georgia, serif" font-size="14">score</text>
  <rect x="48" y="252" width="572" height="188" rx="22" fill="#FFFDF8" stroke="#D7C6AA"/>
  <text x="76" y="294" fill="#1F2933" font-family="Georgia, serif" font-size="28" font-weight="700">Status distribution</text>
  <text x="76" y="322" fill="#5D6B79" font-family="Georgia, serif" font-size="16">Visual breakdown of outcomes across the scan.</text>
  <text x="76" y="365" fill="#1F2933" font-family="Georgia, serif" font-size="16">pass</text>
  <rect x="170" y="350" width="360" height="14" rx="7" fill="#EFE5D8"/>
  <rect x="170" y="350" width="170" height="14" rx="7" fill="#2D7A46"/>
  <text x="548" y="365" fill="#1F2933" font-family="Georgia, serif" font-size="16">2</text>
  <text x="76" y="402" fill="#1F2933" font-family="Georgia, serif" font-size="16">fail</text>
  <rect x="170" y="387" width="360" height="14" rx="7" fill="#EFE5D8"/>
  <rect x="170" y="387" width="170" height="14" rx="7" fill="#B03A2E"/>
  <text x="548" y="402" fill="#1F2933" font-family="Georgia, serif" font-size="16">2</text>
  <rect x="660" y="252" width="572" height="188" rx="22" fill="#FFFDF8" stroke="#D7C6AA"/>
  <text x="688" y="294" fill="#1F2933" font-family="Georgia, serif" font-size="28" font-weight="700">Framework cards</text>
  <text x="688" y="322" fill="#5D6B79" font-family="Georgia, serif" font-size="16">Read the result like an audit dashboard.</text>
  <rect x="688" y="346" width="160" height="74" rx="16" fill="#F8F2E8"/>
  <text x="708" y="374" fill="#5D6B79" font-family="Georgia, serif" font-size="14">CIS Controls v8</text>
  <text x="708" y="404" fill="#B03A2E" font-family="Georgia, serif" font-size="28" font-weight="700">70.0%</text>
  <rect x="866" y="346" width="160" height="74" rx="16" fill="#F8F2E8"/>
  <text x="886" y="374" fill="#5D6B79" font-family="Georgia, serif" font-size="14">NIST CSF 2.0</text>
  <text x="886" y="404" fill="#B03A2E" font-family="Georgia, serif" font-size="28" font-weight="700">50.0%</text>
  <rect x="1044" y="346" width="160" height="74" rx="16" fill="#F8F2E8"/>
  <text x="1064" y="374" fill="#5D6B79" font-family="Georgia, serif" font-size="14">OWASP</text>
  <text x="1064" y="404" fill="#B03A2E" font-family="Georgia, serif" font-size="28" font-weight="700">0.0%</text>
  <rect x="48" y="468" width="1184" height="200" rx="22" fill="#FFFDF8" stroke="#D7C6AA"/>
  <text x="76" y="510" fill="#1F2933" font-family="Georgia, serif" font-size="28" font-weight="700">Blocking controls</text>
  <rect x="76" y="534" width="340" height="100" rx="18" fill="#FFF4F2" stroke="#E4C5BC"/>
  <text x="96" y="564" fill="#B85A2B" font-family="Georgia, serif" font-size="14" font-weight="700">HIGH</text>
  <text x="96" y="592" fill="#1F2933" font-family="Georgia, serif" font-size="24" font-weight="700">Defender actif</text>
  <text x="96" y="620" fill="#5D6B79" font-family="Georgia, serif" font-size="15">Core protections are not fully enabled.</text>
  <rect x="434" y="534" width="340" height="100" rx="18" fill="#FFF4F2" stroke="#E4C5BC"/>
  <text x="454" y="564" fill="#B85A2B" font-family="Georgia, serif" font-size="14" font-weight="700">HIGH</text>
  <text x="454" y="592" fill="#1F2933" font-family="Georgia, serif" font-size="24" font-weight="700">Security headers</text>
  <text x="454" y="620" fill="#5D6B79" font-family="Georgia, serif" font-size="15">CSP is still missing on the target web app.</text>
  <defs>
    <linearGradient id="paint0_linear" x1="48" y1="40" x2="1232" y2="220" gradientUnits="userSpaceOnUse">
      <stop stop-color="#FFFDF8"/>
      <stop offset="1" stop-color="#F6E5C7"/>
    </linearGradient>
  </defs>
</svg>
